<svg xmlns="http://www.w3.org/2000/svg" xmlns:svg="http://www.w3.org/2000/svg" id="svg6096" width="61.44" height="61.44" version="1.1" viewBox="0 0 61.44 61.44"><metadata id="metadata6102"/><g id="g6104"><path id="path6673" d="M 26.029303,58.428636 C 15.423714,56.401983 7.2547791,49.422886 3.8009465,39.437926 2.7364233,36.360412 2.7224286,36.247417 2.7212222,30.719999 2.7200207,25.21494 2.737859,25.06846 3.7734035,22.08 5.31067,17.643627 7.3374191,14.422581 10.72,11.04 16.319005,5.4409942 22.740918,2.7613033 30.56,2.7613033 c 7.819081,0 14.240994,2.6796909 19.839999,8.2786967 3.381501,3.3815 5.450096,6.666886 6.850438,10.88 2.033802,6.118964 2.033802,11.481033 0,17.599999 -2.553423,7.682314 -8.716681,14.181674 -16.331727,17.222342 -4.650176,1.856804 -10.518908,2.521466 -14.889407,1.686295 z" style="fill:#f5f5f5;fill-opacity:1;stroke-width:.32"/><path id="path6671" d="m 19.677373,40.95575 c -0.281503,-0.455482 1.201142,-3.572784 2.421596,-5.091475 0.561729,-0.698996 1.867259,-1.886928 2.901178,-2.639847 C 26.034066,32.47151 26.88,31.744001 26.88,31.607743 c 0,-0.379695 -1.874076,-0.294215 -2.661038,0.121373 -0.384429,0.203014 -1.199772,0.779015 -1.811872,1.28 -0.612101,0.500986 -1.359602,0.910883 -1.661115,0.910883 -1.256533,0 -0.866732,-0.825315 1.527081,-3.233251 L 24.784985,28.16 h 1.793615 1.793614 l 1.018958,-1.57252 c 1.204265,-1.858496 3.90372,-4.400329 5.941429,-5.594507 0.799872,-0.468756 2.269139,-1.002912 3.26504,-1.187014 1.526717,-0.282229 1.88975,-0.25571 2.314534,0.169074 1.821092,1.82109 -2.025564,8.644862 -6.698873,11.883469 -1.188327,0.82351 -1.253303,0.955645 -1.253303,2.548733 0,1.67782 -0.0037,1.68384 -2.601739,4.257596 -2.202529,2.181927 -2.668987,2.510157 -3.04,2.139143 -0.613205,-0.613207 -0.590122,-0.681623 0.833029,-2.469024 1.129779,-1.418944 1.951088,-3.539239 1.532924,-3.957405 -0.30242,-0.302419 -1.184119,0.255027 -1.380118,0.872566 -0.367021,1.156381 -3.866623,4.4048 -5.629526,5.225466 -1.846261,0.859475 -2.680203,0.993078 -2.997196,0.480173 z m 4.583838,-2.490947 c 1.987713,-1.316628 4.28654,-4.605053 3.658369,-5.233223 -0.888816,-0.888816 -5.417171,2.737613 -6.567306,5.259277 C 21.048523,39.156828 20.8,39.784438 20.8,39.885545 c 0,0.420438 1.792203,-0.315219 3.461211,-1.420742 z m -0.02883,-2.049565 c 0.91562,-0.915619 1.7558,-1.573725 1.867068,-1.462458 0.111268,0.111271 -0.455799,0.860413 -1.26015,1.664762 -0.804351,0.804352 -1.644531,1.462457 -1.867068,1.462457 -0.222536,0 0.344532,-0.749142 1.26015,-1.664761 z m 7.676266,-4.295719 c 1.798404,-0.987052 3.446222,-2.17345 4.593374,-3.307143 1.387219,-1.370946 2.85798,-3.591739 2.85798,-4.315446 0,-0.379256 -0.570201,-1.243832 -1.272809,-1.929909 -1.219687,-1.190991 -1.309191,-1.223753 -2.144458,-0.784943 -1.816784,0.95445 -4.003286,2.823172 -5.253043,4.489581 -1.270232,1.69371 -2.529689,4.066626 -2.529689,4.766133 0,0.367104 1.588435,1.894396 1.988645,1.912095 0.125755,0.0056 0.917755,-0.368105 1.76,-0.830368 z m -0.432292,-3.181223 c -0.517956,-0.790499 -0.509122,-0.850905 0.232623,-1.590674 0.681916,-0.680101 0.863481,-0.722895 1.571023,-0.370286 0.44,0.219276 0.847053,0.727005 0.904564,1.128287 0.239337,1.669989 -1.757335,2.283891 -2.70821,0.832673 z m 2.123646,-0.62834 c 0,-0.991125 -0.831129,-1.375971 -1.508572,-0.698528 C 31.413987,28.288871 31.798833,29.12 32.78996,29.12 c 0.653389,0 0.810041,-0.156653 0.810041,-0.810044 z m 1.339322,-1.328779 c -0.231376,-0.09256 -0.555395,-0.522624 -0.720048,-0.955689 -0.63455,-1.668994 1.171398,-2.765979 2.37113,-1.440291 0.688336,0.760602 0.67054,1.428059 -0.0556,2.085206 -0.603879,0.546504 -0.87449,0.599214 -1.595482,0.310774 z m 1.482934,-1.457908 c -0.110649,-0.775555 -1.087113,-1.146412 -1.618736,-0.614789 -0.53742,0.53742 -0.0074,1.33152 0.888695,1.33152 0.679101,0 0.813475,-0.131924 0.730041,-0.716731 z" style="fill:#5270ff;fill-opacity:1;stroke-width:.32"/></g></svg>