<svg xmlns="http://www.w3.org/2000/svg" xmlns:svg="http://www.w3.org/2000/svg" id="svg6675" width="61.44" height="61.44" version="1.1" viewBox="0 0 61.44 61.44"><metadata id="metadata6681"/><g id="g6683"><path id="path7250" d="M 26.029303,58.428636 C 15.423714,56.401983 7.2547791,49.422886 3.8009465,39.437926 2.7364233,36.360412 2.7224286,36.247417 2.7212222,30.719999 2.7200207,25.21494 2.737859,25.06846 3.7734035,22.08 5.31067,17.643627 7.3374191,14.422581 10.72,11.04 16.319005,5.4409942 22.740918,2.7613033 30.56,2.7613033 c 7.819081,0 14.240994,2.6796909 19.839999,8.2786967 3.381501,3.3815 5.450096,6.666886 6.850438,10.88 2.033802,6.118964 2.033802,11.481033 0,17.599999 -2.553423,7.682314 -8.716681,14.181674 -16.331727,17.222342 -4.650176,1.856804 -10.518908,2.521466 -14.889407,1.686295 z" style="fill:#f5f5f5;fill-opacity:1;stroke-width:.32"/><path id="path7248" d="m 26.24,44.977414 c -2.629511,-0.740202 -3.668067,-1.343072 -5.602686,-3.252298 -4.11682,-4.062787 -5.859382,-9.770333 -4.441335,-14.547036 1.399168,-4.713107 4.010435,-7.907841 8.03395,-9.829071 C 26.675203,16.18139 26.789081,16.16 30.56,16.16 c 3.655023,0 3.943964,0.04925 5.998211,1.02235 2.935657,1.390629 4.196377,2.415107 5.886246,4.783245 2.057011,2.882642 2.773965,5.083742 2.799421,8.594405 0.02525,3.481801 -0.814637,6.274095 -2.662183,8.850745 -2.97448,4.148313 -6.823513,6.054941 -12.113886,6.00064 C 28.934514,45.395647 27.032,45.200361 26.24,44.977414 Z m 9.110473,-3.391511 c 2.135286,-1.055113 4.915789,-3.909241 6.080557,-6.241564 0.812822,-1.627588 0.952336,-2.276378 0.96,-4.46434 C 42.398774,28.670162 42.264735,28.035493 41.411087,26.24 40.163225,23.615349 39.101078,22.360164 36.837036,20.83465 34.463823,19.235576 33.321951,18.88 30.56,18.88 c -2.850631,0 -3.951681,0.360347 -6.42372,2.102327 -2.234603,1.574665 -3.342314,2.912424 -4.556114,5.502324 -0.71292,1.521167 -0.858631,2.273578 -0.851198,4.395348 0.0077,2.195344 0.144094,2.82512 0.957604,4.421239 1.281748,2.514806 2.433063,3.845693 4.584022,5.299001 2.565941,1.733693 3.359428,1.956826 6.609405,1.858605 2.295037,-0.06936 3.203044,-0.246665 4.470474,-0.872941 z m -7.385823,-3.96263 c -0.355097,-0.925373 0.01998,-1.941091 0.75535,-2.04553 0.650383,-0.09237 0.72,-0.278412 0.72,-1.924118 0,-1.582413 -0.09463,-1.86338 -0.72,-2.137745 C 27.898269,31.155368 27.605963,29.947572 28.174617,29.262386 28.410098,28.978649 29.142247,28.8 30.069586,28.8 c 2.225329,0 2.570413,0.529655 2.570413,3.945196 0,2.57576 0.04663,2.774803 0.650042,2.774803 0.779731,0 1.091782,0.67137 0.818371,1.760717 -0.195369,0.778413 -0.275907,0.799283 -3.084552,0.799283 -2.203,0 -2.925329,-0.10784 -3.05921,-0.456726 z m 1.013495,-11.454475 c -0.655782,-0.93626 -0.629249,-1.630959 0.08705,-2.279202 1.257701,-1.138205 3.574802,-0.304647 3.574802,1.286005 0,1.612591 -2.712672,2.348343 -3.661854,0.993197 z" style="fill:#5270ff;fill-opacity:1;stroke-width:.32"/></g></svg>