<svg xmlns="http://www.w3.org/2000/svg" xmlns:svg="http://www.w3.org/2000/svg" id="svg7252" width="61.44" height="61.44" version="1.1" viewBox="0 0 61.44 61.44"><metadata id="metadata7258"/><g id="g7260"><path id="path7827" d="M 26.029303,58.428636 C 15.423714,56.401983 7.2547791,49.422886 3.8009465,39.437926 2.7364233,36.360412 2.7224286,36.247417 2.7212222,30.719999 2.7200207,25.21494 2.737859,25.06846 3.7734035,22.08 5.31067,17.643627 7.3374191,14.422581 10.72,11.04 16.319005,5.4409942 22.740918,2.7613033 30.56,2.7613033 c 7.819081,0 14.240994,2.6796909 19.839999,8.2786967 3.381501,3.3815 5.450096,6.666886 6.850438,10.88 2.033802,6.118964 2.033802,11.481033 0,17.599999 -2.553423,7.682314 -8.716681,14.181674 -16.331727,17.222342 -4.650176,1.856804 -10.518908,2.521466 -14.889407,1.686295 z" style="fill:#f5f5f5;fill-opacity:1;stroke-width:.32"/><path id="path7825" d="M 28.129602,44.51973 C 27.721887,44.189583 27.154514,43.217583 26.868773,42.359731 26.204558,40.365622 24.716279,39.225174 23.4209,39.717676 22.056486,40.236425 20.203375,40.138447 19.509934,39.510889 18.600132,38.687532 17.28,36.317459 17.28,35.507427 c 0,-0.384234 0.576,-1.386576 1.28,-2.227428 1.492834,-1.783027 1.757819,-3.536173 0.64,-4.234263 -0.352,-0.219827 -0.64,-0.549045 -0.64,-0.731594 0,-0.18255 -0.288,-0.578501 -0.64,-0.879893 -0.874032,-0.748369 -0.807476,-2.093992 0.19202,-3.882285 1.109398,-1.984929 2.308418,-2.603517 4.1484,-2.140204 0.760641,0.191532 1.658191,0.34824 1.994555,0.34824 0.941965,0 2.223089,-1.387326 2.61082,-2.82725 0.514733,-1.911572 1.588628,-2.61275 4.001579,-2.61275 2.282225,0 2.904984,0.454106 3.949605,2.88 0.341046,0.792 0.932585,1.719604 1.314534,2.061343 0.638147,0.570971 0.848566,0.589511 2.595488,0.22869 2.34969,-0.48532 3.338643,-0.07993 4.396441,1.802165 1.108484,1.972278 0.973607,3.674849 -0.403443,5.092751 -1.542675,1.58844 -1.541824,3.004181 0.0029,4.63369 1.510391,1.593418 1.559763,3.394429 0.146538,5.345332 -1.260486,1.740051 -2.08273,2.04088 -4.128099,1.510316 -2.191168,-0.56838 -3.251834,0.04933 -4.011399,2.336164 -0.736057,2.21574 -1.69407,2.909548 -4.017623,2.909548 -1.323978,0 -2.049694,-0.168669 -2.582694,-0.600269 z m 4.368973,-3.736268 c 0.445991,-1.534154 0.72008,-1.907603 2.008938,-2.737184 1.403382,-0.903293 1.631984,-0.950224 3.829062,-0.786141 l 2.336573,0.174502 0.428147,-1.018259 c 0.410055,-0.975235 0.383104,-1.062 -0.637811,-2.053446 -2.195008,-2.131642 -2.065565,-5.55947 0.293248,-7.765672 0.770499,-0.720649 0.789328,-0.813355 0.341168,-1.68 -0.529891,-1.024691 -0.806422,-1.078352 -2.803933,-0.544099 -1.34054,0.35854 -1.471632,0.326743 -3.345196,-0.811386 C 33.147638,22.467646 32.95999,22.243751 32.490457,20.628613 31.986792,18.896068 31.970647,18.88 30.733481,18.88 c -1.237203,0 -1.253974,0.01669 -1.831061,1.822663 -0.536938,1.680327 -0.729327,1.908225 -2.463611,2.918311 -1.736815,1.011561 -1.972973,1.068149 -3.077126,0.737337 -1.903067,-0.570173 -2.442129,-0.459489 -2.877155,0.590755 -0.365353,0.882042 -0.314349,1.041088 0.72221,2.252075 1.877553,2.193499 1.823101,4.974782 -0.141199,7.211994 -0.900962,1.026141 -0.948028,1.191738 -0.586668,2.064141 l 0.39288,0.948496 2.284124,-0.17007 c 2.139839,-0.159325 2.379217,-0.108877 3.789497,0.798598 1.21479,0.781683 1.576005,1.232832 1.871288,2.337184 0.487091,1.821712 0.821909,2.168515 2.093583,2.168515 1.025105,0 1.094416,-0.07752 1.588332,-1.776537 z M 27.955737,35.13295 C 26.276124,33.939708 25.6,32.658079 25.6,30.667521 c 0,-3.70844 3.05696,-6.053875 6.634751,-5.090476 4.545008,1.223843 5.185098,7.626042 0.98114,9.813358 -1.368035,0.711788 -4.082878,0.578912 -5.260154,-0.257453 z m 4.01508,-1.997859 c 0.494469,-0.2557 1.085067,-0.914026 1.312437,-1.462945 0.349315,-0.843326 0.336077,-1.160181 -0.08541,-2.04404 -1.01103,-2.12015 -3.83138,-2.211756 -4.89294,-0.158924 -0.68625,1.32706 -0.581595,1.838132 0.623091,3.042817 1.204685,1.204685 1.715757,1.309341 3.042817,0.623092 z" style="fill:#5270ff;fill-opacity:1;stroke-width:.32"/></g></svg>